<svg xmlns="http://www.w3.org/2000/svg" viewBox="0 0 588 641"><circle cx="294" cy="320.5" r="294" fill="#6D28D9"/><g transform="translate(88 96) scale(.7)">
    <g transform="matrix(1,0,0,1,-10792.078944,-6687.264919)">
        <g transform="matrix(1.419912,0,0,1,7447.910495,2544.449769)">
            <g id="Symbol" transform="matrix(0.413915,0,0,0.587724,589.58937,566.577285)">
                <path d="M4380.435,6348.983C4392.966,6318.288 4442.141,6283.85 4461.127,6273.3C4480.113,6262.751 4538.226,6244.731 4546.78,6252.452C4545.817,6251.718 4544.839,6251.005 4543.846,6250.311C4529.891,6240.573 4512.924,6234.859 4494.633,6234.859C4484.269,6234.859 4474.329,6236.694 4465.122,6240.056C4486.018,6227.61 4525.378,6219.14 4542.79,6216.166C4584.856,6208.98 4618.662,6216.506 4620.244,6217.616C4622.571,6219.249 4624.845,6220.951 4627.065,6222.72C4627.618,6223.16 4628.167,6223.605 4628.713,6224.053C4627.72,6225.806 4615.351,6221.834 4599.496,6221.962C4580.276,6222.117 4567.65,6225.082 4568.819,6225.861C4569.77,6226.675 4570.725,6227.484 4571.685,6228.288C4572.463,6228.94 4573.245,6229.59 4574.029,6230.236C4575.43,6231.39 4576.839,6232.535 4578.258,6233.668C4580.537,6235.491 4582.839,6237.287 4585.163,6239.055C4585.433,6239.26 4585.703,6239.465 4585.973,6239.67C4587.739,6241.006 4589.518,6242.327 4591.308,6243.632C4592.33,6244.376 4593.355,6245.115 4594.385,6245.849C4608.537,6255.938 4623.44,6265.042 4638.991,6273.062C4646.88,6280.137 4668.914,6293.598 4670.558,6294.408C4670.463,6294.757 4670.371,6295.107 4670.279,6295.458C4657.872,6296.119 4646.159,6299.409 4635.687,6304.782C4637.96,6304.602 4640.259,6304.51 4642.578,6304.51C4651.274,6304.51 4659.67,6305.801 4667.586,6308.203C4671.284,6309.324 4674.877,6310.688 4678.347,6312.276C4683.366,6314.573 4688.127,6317.338 4692.574,6320.515C4695.045,6322.28 4697.418,6324.172 4699.684,6326.182C4700.745,6327.122 4701.782,6328.088 4702.795,6329.079C4706.66,6332.86 4710.171,6337.001 4713.273,6341.448C4708.511,6340.955 4709.055,6341.661 4704.164,6341.661C4697.564,6341.661 4691.07,6342.121 4684.713,6343.01C4680.347,6343.62 4676.047,6344.433 4671.82,6345.439C4670.975,6345.64 4670.133,6345.849 4669.293,6346.065C4656.615,6349.335 4646.4,6355.234 4633.617,6360.826C4623.245,6366.927 4613.755,6374.358 4605.298,6382.815C4587.378,6400.735 4666.467,6398.222 4683.533,6400.237C4724.492,6405.072 4754.133,6431.007 4755.034,6431.419C4754.662,6430.948 4754.286,6430.479 4753.908,6430.013C4752.45,6428.217 4750.949,6426.459 4749.406,6424.739C4747.314,6422.408 4745.144,6420.147 4742.902,6417.961C4742.582,6417.649 4742.26,6417.339 4741.937,6417.03C4741.353,6416.471 4740.764,6415.918 4740.17,6415.369C4736.165,6411.669 4703.018,6391.187 4693.495,6389.674C4674.767,6386.698 4633.143,6388.011 4629.238,6382.223C4626.946,6378.826 4650.305,6368.842 4656.076,6366.142C4660.289,6364.172 4664.616,6362.406 4669.045,6360.857C4671.725,6359.92 4674.442,6359.062 4677.194,6358.287C4686.52,6355.659 4696.241,6353.979 4706.246,6353.355C4709.151,6353.174 4712.081,6353.082 4715.032,6353.082C4716.522,6353.082 4718.007,6353.106 4719.486,6353.152C4719.707,6353.159 4719.927,6353.167 4720.147,6353.175C4724.62,6353.336 4729.04,6353.709 4733.397,6354.283C4740.342,6355.893 4747.211,6357.702 4753.998,6359.702C4755.547,6360.159 4757.092,6360.626 4758.633,6361.102C4758.56,6360.804 4758.486,6360.506 4758.411,6360.209C4758.389,6360.124 4758.367,6360.038 4758.345,6359.952C4758.158,6359.891 4757.971,6359.83 4757.784,6359.77C4756.066,6358.564 4754.359,6357.344 4752.663,6356.109C4748.687,6353.214 4744.771,6350.241 4740.918,6347.192C4736.134,6343.405 4731.446,6339.501 4726.86,6335.484C4723.051,6332.148 4719.312,6328.734 4715.645,6325.245L4715.132,6324.755C4714.542,6324.191 4713.953,6323.626 4713.367,6323.058C4712.995,6322.698 4712.625,6322.338 4712.254,6321.976C4706.195,6316.06 4700.34,6309.935 4694.702,6303.612C4692.58,6301.232 4690.488,6298.825 4688.428,6296.39L4687.872,6295.731C4687.151,6294.875 4686.434,6294.015 4685.721,6293.153C4694.686,6296.282 4703.811,6299.072 4713.079,6301.506C4717.812,6302.749 4722.582,6303.899 4727.387,6304.954L4728.826,6305.267C4733.321,6306.235 4737.846,6307.12 4742.401,6307.92C4742.409,6307.922 4742.418,6307.923 4742.426,6307.925C4742.905,6308.009 4743.384,6308.092 4743.864,6308.174C4759.893,6310.924 4776.278,6312.627 4792.946,6313.21C4794.871,6313.278 4796.8,6313.33 4798.733,6313.368C4798.03,6310.811 4797,6308.389 4795.692,6306.151C4794.554,6304.204 4793.205,6302.396 4791.677,6300.757C4790.438,6299.43 4789.083,6298.213 4787.626,6297.125C4785.75,6295.724 4783.001,6292.022 4781.533,6290.191C4776.538,6283.965 4741.769,6252.741 4738.716,6239.598C4736.999,6232.208 4725.705,6206.014 4723.056,6202.732C4722.543,6202.095 4722.02,6201.466 4721.488,6200.845C4720.721,6199.947 4719.936,6199.066 4719.133,6198.201C4720.801,6198.971 4722.463,6199.753 4724.118,6200.547C4725.116,6201.026 4726.112,6201.51 4727.106,6201.998C4730.721,6203.774 4734.303,6205.609 4737.85,6207.5L4738.367,6207.776L4738.898,6208.061L4739.828,6208.562C4740.382,6208.862 4740.935,6209.163 4741.488,6209.466C4744.625,6211.185 4747.735,6212.948 4750.816,6214.756C4751.555,6215.189 4752.293,6215.626 4753.029,6216.065C4770.821,6226.672 4794.495,6245.746 4803.309,6252.131C4804.237,6252.803 4806.444,6254.839 4806.71,6255.071C4810.989,6258.816 4815.18,6262.659 4819.279,6266.597L4820.043,6267.352C4819.584,6269.446 4819.343,6271.621 4819.343,6273.852C4819.343,6275.16 4819.426,6276.45 4819.587,6277.715C4820.167,6282.26 4821.755,6286.491 4824.12,6290.177C4824.341,6290.521 4824.569,6290.861 4824.803,6291.195C4827.814,6295.496 4831.914,6298.98 4836.702,6301.245C4836.997,6301.385 4837.294,6301.52 4837.594,6301.65C4838.532,6302.453 4839.467,6303.26 4840.396,6304.072C4840.184,6303.548 4839.975,6303.023 4839.769,6302.496C4839.589,6302.035 4839.411,6301.573 4839.236,6301.11C4838.975,6300.418 4838.718,6299.724 4838.467,6299.028C4836.341,6293.125 4834.602,6287.038 4833.281,6280.798C4832.764,6278.359 4832.312,6275.896 4831.925,6273.412C4831.688,6271.891 4831.476,6270.362 4831.289,6268.826C4831.227,6268.315 4831.167,6267.804 4831.111,6267.292C4830.878,6265.188 4830.692,6263.069 4830.554,6260.938C4830.394,6258.464 4830.299,6255.972 4830.27,6253.465C4830.264,6252.919 4830.261,6252.371 4830.261,6251.824C4830.261,6251.405 4830.263,6250.987 4830.266,6250.569C4830.275,6249.573 4830.294,6248.58 4830.324,6247.59C4830.915,6248.113 4831.507,6248.635 4832.101,6249.156C4834.942,6251.65 4837.807,6254.117 4840.696,6256.557C4846.048,6261.077 4851.482,6265.505 4856.995,6269.836C4858.645,6271.132 4860.302,6272.42 4861.967,6273.7C4862.773,6274.32 4863.582,6274.938 4864.391,6275.554C4867.213,6277.699 4870.053,6279.82 4872.914,6281.916C4873.877,6282.621 4874.843,6283.324 4875.81,6284.024C4876.424,6284.468 4877.04,6284.911 4877.656,6285.353C4878.931,6286.269 4880.211,6287.18 4881.495,6288.085C4881.77,6288.28 4882.046,6288.474 4882.321,6288.668C4885.112,6290.63 4887.921,6292.568 4890.747,6294.483C4891.38,6294.911 4892.013,6295.339 4892.647,6295.765C4893.29,6296.197 4893.933,6296.627 4894.578,6297.056C4895.886,6297.928 4897.198,6298.795 4898.514,6299.657C4899.496,6300.034 4900.478,6300.408 4901.462,6300.78C4905.184,6302.188 4908.924,6303.56 4912.682,6304.894C4914.104,6305.399 4915.528,6305.898 4916.955,6306.393C4923.942,6308.813 4930.989,6311.106 4938.092,6313.269C4932.022,6310.046 4926.053,6306.656 4920.192,6303.106L4919.679,6302.795C4917.011,6301.174 4914.366,6299.519 4911.744,6297.831C4908.712,6295.88 4905.711,6293.885 4902.741,6291.848C4900.374,6290.224 4898.027,6288.572 4895.701,6286.894C4893.83,6285.545 4891.973,6284.179 4890.129,6282.795L4889.138,6281.733C4885.965,6278.318 4882.856,6274.841 4879.814,6271.306C4877.325,6268.415 4874.882,6265.484 4872.483,6262.515L4871.912,6261.806C4870.805,6260.428 4869.707,6259.042 4868.619,6257.647C4868.154,6257.051 4867.69,6256.453 4867.229,6255.853C4864.515,6252.331 4861.865,6248.758 4859.279,6245.135C4857.409,6242.515 4855.573,6239.87 4853.771,6237.199C4848.441,6229.299 4843.412,6221.18 4838.7,6212.858C4838.066,6211.738 4837.438,6210.614 4836.815,6209.487C4835.605,6207.296 4834.416,6205.09 4833.25,6202.871L4833.21,6202.795L4832.842,6202.092C4831.811,6200.12 4830.798,6198.137 4829.802,6196.143C4829.571,6195.68 4829.34,6195.217 4829.111,6194.753C4828.858,6194.24 4828.606,6193.727 4828.355,6193.213C4826.839,6190.107 4825.365,6186.977 4823.935,6183.822C4823.231,6182.27 4822.538,6180.712 4821.855,6179.148C4821.215,6177.682 4820.585,6176.21 4819.964,6174.734C4816.284,6165.989 4812.935,6157.071 4809.933,6147.996C4809.104,6145.491 4808.302,6142.973 4807.526,6140.445C4802.507,6124.077 4798.608,6107.222 4795.92,6089.968C4802.282,6105.078 4809.632,6119.671 4817.89,6133.666C4818.916,6135.405 4819.955,6137.134 4821.009,6138.854C4825.267,6145.804 4829.751,6152.602 4834.451,6159.236C4837.333,6163.305 4840.297,6167.312 4843.34,6171.255L4843.468,6171.421L4844.275,6172.462C4846.23,6174.974 4848.216,6177.459 4850.234,6179.918C4855.112,6185.86 4860.173,6191.646 4865.41,6197.266C4866.277,6198.197 4867.15,6199.124 4868.027,6200.046C4868.801,6200.86 4869.58,6201.671 4870.362,6202.478C4873.188,6205.395 4876.063,6208.265 4878.984,6211.087C4879.797,6211.872 4880.613,6212.653 4881.433,6213.43C4881.895,6213.869 4882.359,6214.307 4882.824,6214.743C4883.289,6215.179 4883.372,6215.284 4883.482,6215.359C4887.69,6218.221 4891.733,6221.308 4895.595,6224.601C4899.652,6228.062 4903.509,6231.75 4907.146,6235.648C4907.969,6236.295 4909.555,6238.031 4909.52,6238.257C4911.167,6240.114 4912.766,6242.015 4914.314,6243.959C4923.016,6254.885 4930.113,6267.145 4935.246,6280.382C4935.007,6277.051 4934.886,6273.689 4934.886,6270.298C4934.886,6265.443 4935.135,6260.645 4935.62,6255.917C4936.479,6247.55 4938.079,6239.402 4940.354,6231.538C4940.857,6229.798 4941.393,6228.072 4941.962,6226.361C4942.044,6228.377 4942.169,6230.381 4942.336,6232.374C4943.254,6243.307 4945.435,6253.882 4948.733,6263.954C4950.061,6268.009 4951.57,6271.983 4953.25,6275.865C4954.045,6277.702 4954.879,6279.519 4955.75,6281.314C4956.114,6282.063 4956.484,6282.809 4956.86,6283.55C4959.409,6288.573 4962.254,6293.421 4965.371,6298.071C4965.649,6299.57 4965.952,6301.062 4966.278,6302.544C4966.779,6304.825 4967.336,6307.084 4967.948,6309.322C4969.181,6313.83 4970.634,6318.247 4972.296,6322.561C4973.338,6325.268 4974.463,6327.934 4975.667,6330.556C4977.187,6333.868 4978.833,6337.11 4980.598,6340.276C4981.531,6341.948 4982.497,6343.599 4983.496,6345.228C4983.665,6345.504 4983.835,6345.78 4984.006,6346.054C4984.698,6347.165 4985.405,6348.266 4986.126,6349.356C4988.644,6353.158 4991.344,6356.83 4994.212,6360.359C4996.858,6363.614 4999.647,6366.747 5002.571,6369.75C5002.766,6369.95 5002.962,6370.15 5003.158,6370.35C5007.583,6374.84 5012.31,6379.032 5017.305,6382.893C5019.488,6384.58 5021.723,6386.204 5024.006,6387.762C5030.872,6392.447 5038.176,6396.534 5045.845,6399.949C5055.309,6404.164 5065.329,6407.355 5075.762,6409.381C5076.309,6409.487 5076.857,6409.59 5077.406,6409.69C5082.731,6410.658 5088.16,6411.323 5093.676,6411.666C5095.706,6415.578 5097.264,6419.772 5098.277,6424.174C5098.832,6426.588 5099.223,6429.063 5099.437,6431.589C5096.076,6438.571 5094.192,6446.396 5094.192,6454.657C5094.192,6456.193 5094.257,6457.715 5094.385,6459.218C5094.341,6459.309 5094.297,6459.4 5094.253,6459.491C5094.328,6459.718 5094.402,6459.945 5094.475,6460.174C5094.852,6463.834 5095.6,6467.386 5096.682,6470.79C5096.869,6472.603 5096.964,6474.444 5096.964,6476.306C5096.964,6493.262 5089.028,6508.379 5076.671,6518.141C5073.718,6520.474 5070.513,6522.501 5067.104,6524.174C5065.613,6524.906 5064.084,6525.57 5062.52,6526.162C5063.532,6524.355 5064.443,6522.483 5065.243,6520.554C5067.368,6515.434 5068.717,6509.912 5069.144,6504.135C5069.241,6502.824 5069.29,6501.499 5069.29,6500.164C5069.29,6494.974 5068.546,6489.957 5067.16,6485.213C5066.558,6483.153 5065.836,6481.144 5065,6479.196C5063.962,6476.776 5062.75,6474.448 5061.379,6472.228C5060.518,6475.061 5059.426,6477.794 5058.127,6480.405C5057.282,6482.103 5056.349,6483.75 5055.334,6485.34C5054.518,6486.618 5053.649,6487.858 5052.73,6489.059C5051.67,6490.445 5050.543,6491.777 5049.355,6493.05C5040.785,6502.237 5029.008,6508.395 5015.816,6509.732C5014.031,6509.913 5012.22,6510.006 5010.387,6510.006C5009.022,6510.006 5007.67,6509.955 5006.331,6509.854C5008.402,6508.791 5010.395,6507.596 5012.298,6506.281C5015.296,6504.209 5018.072,6501.838 5020.583,6499.211C5024.485,6496.222 5027.493,6492.123 5029.132,6487.387C5029.251,6487.164 5029.369,6486.939 5029.485,6486.713C5029.446,6486.7 5029.406,6486.687 5029.367,6486.674C5030.114,6484.289 5030.516,6481.752 5030.516,6479.122C5030.516,6465.165 5019.185,6453.834 5005.228,6453.834C5004.395,6453.834 5003.571,6453.874 5002.759,6453.953C5000.623,6454.161 4998.566,6454.634 4996.619,6455.34C4995.814,6455.631 4995.028,6455.963 4994.264,6456.331C4992.724,6457.074 4991.27,6457.969 4989.923,6458.995C4988.169,6460.332 4986.594,6461.892 4985.242,6463.634C4983.118,6465.325 4980.763,6466.738 4978.23,6467.815C4976.353,6468.614 4974.379,6469.228 4972.33,6469.636C4972.271,6469.648 4972.212,6469.66 4972.152,6469.671C4970.73,6469.945 4969.273,6470.12 4967.788,6470.187C4967.326,6470.208 4966.861,6470.219 4966.394,6470.219C4966.285,6470.219 4966.176,6470.218 4966.067,6470.217C4966.329,6469.999 4966.587,6469.776 4966.841,6469.55C4970.1,6466.641 4973.743,6464.368 4976.191,6458.975C4978.805,6453.214 4972.737,6443.773 4968.94,6438.713C4967.21,6436.407 4965.158,6434.355 4962.852,6432.625C4962.221,6432.151 4961.571,6431.702 4960.903,6431.278C4958.105,6429.502 4954.997,6428.171 4951.679,6427.388C4949.438,6426.858 4947.101,6426.578 4944.7,6426.578C4943.98,6426.578 4943.267,6426.603 4942.56,6426.653C4941.332,6426.739 4940.124,6426.898 4938.941,6427.126C4938.637,6427.184 4938.336,6427.248 4938.035,6427.315C4936.367,6427.69 4934.751,6428.203 4933.199,6428.841C4930.955,6429.764 4928.845,6430.949 4926.908,6432.358C4924.308,6434.25 4922.021,6436.545 4920.137,6439.15C4919.704,6439.75 4919.291,6440.366 4918.902,6440.998C4918.592,6441.5 4918.297,6442.011 4918.016,6442.532C4917.411,6443.656 4916.874,6444.822 4916.413,6446.025C4916.189,6446.608 4915.983,6447.199 4915.795,6447.799C4915.629,6448.326 4915.478,6448.859 4915.341,6449.398C4915.168,6450.078 4915.019,6450.766 4914.893,6451.463C4914.577,6453.217 4914.411,6455.023 4914.411,6456.867C4914.411,6457.101 4914.414,6457.336 4914.419,6457.569C4914.433,6458.168 4914.464,6458.762 4914.512,6459.351C4914.519,6459.435 4914.526,6459.519 4914.534,6459.602C4914.452,6461.522 4914.409,6463.452 4914.406,6465.391C4914.406,6465.465 4914.406,6465.54 4914.406,6465.614C4914.406,6485.599 4918.62,6504.608 4926.207,6521.799C4927.819,6525.452 4929.583,6529.022 4931.492,6532.502C4932.374,6534.111 4933.287,6535.701 4934.23,6537.27C4934.366,6537.648 4934.508,6538.022 4934.659,6538.393C4936.42,6542.743 4939.162,6546.592 4942.611,6549.665C4944.815,6551.628 4947.308,6553.275 4950.017,6554.533C4950.057,6554.551 4950.097,6554.57 4950.137,6554.588C4953.45,6556.109 4957.084,6557.049 4960.908,6557.279C4961.516,6557.315 4962.129,6557.334 4962.746,6557.334C4963.456,6557.334 4964.159,6557.309 4964.857,6557.261C4965.353,6557.227 4965.846,6557.181 4966.335,6557.123C4968.864,6556.824 4971.299,6556.212 4973.599,6555.328C4975.838,6554.468 4977.949,6553.349 4979.896,6552.008C4981.815,6550.686 4983.574,6549.149 4985.138,6547.432C4985.199,6547.581 4985.258,6547.73 4985.316,6547.88C4986.623,6551.263 4987.339,6554.938 4987.339,6558.78C4987.339,6559.754 4987.293,6560.718 4987.203,6561.669C4987.053,6563.253 4986.78,6564.802 4986.395,6566.305C4985.339,6570.432 4983.433,6574.221 4980.877,6577.473C4979.644,6579.041 4978.26,6580.485 4976.747,6581.782C4975.487,6582.862 4974.137,6583.841 4972.711,6584.705C4970.448,6586.076 4966.291,6587.158 4963.692,6587.902C4963.666,6589.021 4967.603,6591.636 4967.603,6591.636C4967.603,6591.636 4971.158,6593.651 4974.377,6594.131C4975.844,6594.35 4977.346,6594.463 4978.874,6594.463C4981.062,6594.463 4983.195,6594.231 4985.252,6593.79C4987.947,6593.211 4990.51,6592.273 4992.887,6591.029C4993.759,6590.573 4994.605,6590.076 4995.424,6589.54C4998.283,6587.67 5000.806,6585.331 5002.885,6582.631C5003.368,6582.004 5003.827,6581.357 5004.261,6580.692C5004.49,6584.109 5004.671,6587.54 5004.805,6590.982C5004.192,6592.124 5003.554,6593.25 5002.891,6594.36C5002.72,6594.648 5002.547,6594.935 5002.372,6595.22C5001.307,6596.958 5000.182,6598.656 4999,6600.31C4996.057,6604.43 4992.76,6608.28 4989.154,6611.816C4987.449,6613.488 4985.675,6615.089 4983.836,6616.616C4983.655,6616.766 4983.473,6616.916 4983.291,6617.065C4982.856,6617.42 4982.417,6617.772 4981.974,6618.119C4980.603,6619.195 4979.198,6620.231 4977.761,6621.224C4977.577,6621.351 4977.393,6621.477 4977.208,6621.603C4972.453,6624.836 4967.358,6627.605 4961.988,6629.847C4961.633,6629.995 4961.277,6630.141 4960.92,6630.284C4957.679,6631.586 4954.342,6632.696 4950.921,6633.601C4948.563,6634.224 4946.166,6634.751 4943.733,6635.175C4943.399,6635.233 4943.064,6635.289 4942.728,6635.344C4939.808,6635.817 4936.839,6636.143 4933.829,6636.314L4930.443,6636.441C4930.443,6636.441 4929.392,6636.455 4928.865,6636.455C4926.41,6636.455 4923.979,6636.352 4921.576,6636.151C4919.717,6635.814 4917.916,6635.308 4916.191,6634.648C4913.854,6633.754 4911.656,6632.579 4909.638,6631.164C4910.843,6631.736 4912.191,6632.056 4913.613,6632.056C4914.87,6632.056 4916.069,6631.806 4917.162,6631.353C4920.53,6629.957 4922.901,6626.637 4922.901,6622.768C4922.901,6620.637 4922.182,6618.673 4920.974,6617.106C4919.81,6615.594 4918.191,6614.451 4916.323,6613.882C4915.463,6613.808 4914.593,6613.771 4913.714,6613.771C4912.738,6613.771 4911.773,6613.817 4910.82,6613.907C4908.499,6614.128 4906.254,6614.611 4904.115,6615.326C4903.277,6615.606 4902.456,6615.922 4901.652,6616.271C4901.196,6616.47 4900.745,6616.68 4900.3,6616.9C4899.869,6617.114 4899.443,6617.337 4899.024,6617.57C4898.976,6617.587 4898.928,6617.603 4898.879,6617.618C4898.852,6617.627 4898.825,6617.636 4898.798,6617.645C4898.737,6617.665 4898.676,6617.685 4898.615,6617.704C4895.716,6618.627 4892.628,6619.126 4889.424,6619.126C4887.389,6619.126 4885.4,6618.925 4883.476,6618.541C4880.936,6618.034 4878.51,6617.21 4876.242,6616.11L4876.27,6616.019L4876.346,6615.778C4881.437,6615.263 4887.148,6613.133 4889.978,6611.633C4891.715,6610.712 4892.756,6608.129 4893.324,6606.776C4894.13,6604.855 4894.582,6601.939 4894.355,6600.583C4893.856,6597.602 4889.458,6598.274 4882.365,6600.355C4882.343,6600.476 4880.823,6600.955 4880.659,6601.001C4878.054,6601.733 4875.306,6602.124 4872.468,6602.124C4868.507,6602.124 4864.722,6601.362 4861.253,6599.976C4860.278,6599.587 4859.328,6599.148 4858.406,6598.663C4857.96,6598.429 4857.52,6598.184 4857.088,6597.928C4856.215,6597.412 4855.37,6596.853 4854.556,6596.255C4854.781,6596.26 4855.006,6596.262 4855.233,6596.262C4855.49,6596.262 4855.746,6596.259 4856.001,6596.253C4856.667,6596.236 4857.327,6596.198 4857.981,6596.139C4858.648,6596.079 4859.309,6595.997 4859.964,6595.894C4862.515,6595.493 4864.961,6594.773 4867.26,6593.777C4868.818,6593.101 4870.309,6592.298 4871.718,6591.381C4872.586,6590.942 4873.376,6590.37 4874.061,6589.693C4875.575,6588.197 4876.578,6586.184 4876.783,6583.942C4876.809,6583.661 4876.822,6583.376 4876.822,6583.088C4876.822,6578.55 4872.776,6574.481 4870.958,6573.959C4869.236,6573.464 4867.04,6571.142 4865.916,6569.746C4864.622,6568.138 4863.314,6566.541 4861.993,6564.955C4860.962,6563.717 4859.922,6562.486 4858.875,6561.262C4858.441,6560.755 4858.006,6560.248 4857.569,6559.743C4855.129,6556.923 4852.647,6554.141 4850.124,6551.397C4848.169,6549.272 4846.189,6547.17 4844.186,6545.091C4843.781,6544.672 4843.375,6544.253 4842.969,6543.835C4841.774,6542.608 4840.571,6541.389 4839.36,6540.179C4837.44,6538.261 4835.499,6536.364 4833.537,6534.49C4833.352,6534.312 4833.166,6534.135 4832.981,6533.959C4831.646,6532.688 4830.302,6531.428 4828.948,6530.178C4826.47,6527.89 4823.961,6525.636 4821.421,6523.416C4819.044,6521.34 4816.641,6519.293 4814.211,6517.278C4809.367,6512.895 4804.215,6508.847 4798.79,6505.171C4793.862,6501.83 4788.708,6498.797 4783.358,6496.099C4780.937,6494.878 4778.475,6493.725 4775.975,6492.643C4760.52,6485.956 4743.619,6481.986 4725.877,6481.339C4724.162,6481.276 4722.44,6481.245 4720.71,6481.245C4693.917,6481.245 4668.879,6488.819 4647.622,6501.94C4649.122,6498.143 4650.784,6494.427 4652.6,6490.801C4655.428,6485.153 4658.629,6479.722 4662.17,6474.543C4663.862,6472.067 4665.632,6469.649 4667.476,6467.291C4672.833,6460.444 4678.815,6454.109 4685.336,6448.374C4692.588,6441.995 4700.506,6436.358 4708.973,6431.58C4709.301,6431.395 4709.629,6431.211 4709.958,6431.028C4709.394,6430.982 4708.829,6430.938 4708.263,6430.898C4704.959,6430.663 4701.622,6430.544 4698.258,6430.544C4691.5,6430.544 4684.854,6431.025 4678.352,6431.956C4670.551,6434.639 4662.882,6437.609 4655.358,6440.853C4646.151,6444.822 4637.162,6449.202 4628.413,6453.97C4620.358,6458.359 4612.507,6463.077 4604.878,6468.106C4602.926,6469.392 4600.989,6470.699 4599.066,6472.026C4590.985,6477.604 4583.166,6483.535 4575.632,6489.798C4570.684,6493.911 4565.858,6498.168 4561.162,6502.561C4542.89,6519.652 4526.576,6538.809 4512.593,6559.659C4477.666,6611.739 4457.285,6674.376 4457.285,6741.737C4457.285,6771.025 4461.138,6799.42 4468.364,6826.443C4469.991,6832.525 4471.788,6838.537 4473.751,6844.475C4474.522,6846.808 4475.319,6849.129 4476.141,6851.438C4477.599,6855.536 4479.137,6859.596 4480.752,6863.618C4481.379,6865.178 4482.018,6866.733 4482.668,6868.282C4483.725,6870.8 4484.813,6873.302 4485.931,6875.788C4487.629,6879.563 4489.396,6883.301 4491.231,6886.999C4499.656,6903.977 4509.512,6920.122 4520.64,6935.277C4525.749,6942.235 4531.126,6948.984 4536.757,6955.509C4557.694,6979.774 4582.129,7000.938 4609.274,7018.216C4624.98,7028.212 4641.594,7036.908 4658.963,7044.15C4659.515,7044.38 4660.068,7044.608 4660.621,7044.836C4683.861,7054.375 4708.436,7061.319 4733.986,7065.303C4750.539,7067.885 4767.501,7069.225 4784.773,7069.225C4793.643,7069.225 4802.431,7068.872 4811.124,7068.178C4817.214,7067.693 4823.257,7067.04 4829.249,7066.225C4830.749,7066.021 4832.245,7065.807 4833.739,7065.582C4837.04,7065.116 4840.328,7064.612 4843.605,7064.072C4944.452,7047.448 5033.68,6996.166 5098.63,6922.884C5137.323,6879.228 5167.4,6827.764 5186.183,6771.169C5190.372,6758.548 5194,6745.672 5197.036,6732.57C5198.38,6726.769 5199.609,6720.923 5200.718,6715.036C5203.098,6702.412 5204.933,6689.597 5206.198,6676.616C5207.567,6662.562 5208.268,6648.312 5208.268,6633.9C5208.268,6588.261 5201.24,6544.251 5188.209,6502.893C5187.127,6499.458 5186.003,6496.041 5184.838,6492.643C5174.329,6461.982 5160.496,6432.859 5143.77,6405.705C5142.95,6404.374 5142.123,6403.047 5141.289,6401.725C5140.501,6400.476 5139.706,6399.231 5138.906,6397.99C5138.24,6396.958 5137.57,6395.928 5136.895,6394.902C5135.642,6392.995 5134.374,6391.098 5133.091,6389.211C5132.545,6388.408 5131.997,6387.607 5131.446,6386.808C5124.422,6376.623 5116.977,6366.751 5109.135,6357.218C5108.709,6356.7 5108.282,6356.183 5107.853,6355.667C5102.996,6349.817 5097.989,6344.095 5092.838,6338.509C5090.255,6335.707 5087.635,6332.94 5084.98,6330.206C5085.082,6330.057 5085.184,6329.907 5085.285,6329.757C5084.968,6329.684 5084.65,6329.611 5084.332,6329.54C5078.622,6323.687 5072.749,6317.994 5066.72,6312.468C5064.466,6310.402 5062.191,6308.36 5059.895,6306.341C5059.048,6305.597 5058.198,6304.855 5057.345,6304.117C5053.44,6300.739 5049.475,6297.428 5045.451,6294.187C5029.9,6281.662 5013.472,6270.182 4996.274,6259.855C4994.962,6259.067 4993.645,6258.285 4992.324,6257.511C4987.449,6254.653 4982.515,6251.887 4977.522,6249.216C4974.865,6243.79 4971.866,6238.561 4968.553,6233.559C4968.588,6233.441 4968.622,6233.322 4968.657,6233.204C4980.891,6238.506 4992.868,6244.292 5004.562,6250.538C5005.701,6251.146 5006.837,6251.759 5007.97,6252.376C5024.047,6261.127 5039.581,6270.75 5054.509,6281.184C5061.377,6285.984 5068.117,6290.956 5074.722,6296.093C5076.16,6297.211 5077.59,6298.336 5079.015,6299.469C5083.947,6303.394 5088.803,6307.411 5093.578,6311.519C5094.079,6311.95 5094.58,6312.382 5095.079,6312.815C5104.594,6321.066 5113.789,6329.677 5122.642,6338.627C5126.303,6342.327 5129.905,6346.086 5133.447,6349.901C5134.603,6351.145 5135.752,6352.396 5136.895,6353.652C5137.165,6353.95 5137.435,6354.247 5137.705,6354.545C5143.467,6360.912 5149.065,6367.43 5154.492,6374.094C5156.228,6376.226 5157.946,6378.373 5159.647,6380.534C5163.012,6384.81 5166.307,6389.143 5169.53,6393.531C5169.742,6393.82 5169.954,6394.109 5170.166,6394.398C5171.054,6395.612 5171.936,6396.83 5172.813,6398.053C5176.201,6402.777 5179.508,6407.564 5182.731,6412.411C5184.157,6414.556 5185.566,6416.711 5186.958,6418.879C5190.512,6424.41 5193.957,6430.017 5197.291,6435.696C5237.541,6504.258 5261.61,6583.443 5264.239,6667.99C5264.399,6673.136 5264.48,6678.301 5264.48,6683.485C5264.48,6693.474 5264.18,6703.394 5263.59,6713.236C5263.256,6718.815 5262.828,6724.369 5262.308,6729.897C5260.886,6745.024 5258.775,6759.952 5256.008,6774.649C5235.067,6885.87 5176.531,6983.89 5094.124,7054.981C5008.289,7129.03 4896.557,7173.864 4774.437,7173.973C4737.244,7171.076 4701.209,7164.023 4666.798,7153.278C4594.919,7130.834 4530.123,7092.283 4476.643,7041.858C4467.353,7033.099 4458.405,7023.982 4449.82,7014.529C4442.682,7006.668 4435.795,6998.575 4429.173,6990.263C4426.022,6986.308 4422.932,6982.304 4419.902,6978.252C4412.585,6968.465 4405.625,6958.396 4399.042,6948.064C4392.15,6937.25 4385.671,6926.149 4379.626,6914.782C4377.557,6919.284 4376.098,6924.123 4375.353,6929.194C4374.98,6931.737 4374.787,6934.339 4374.787,6936.986C4374.787,6937.917 4374.811,6938.843 4374.858,6939.762C4369.479,6931.663 4341.509,6888.044 4331.66,6860.229C4321.811,6832.414 4316.56,6781.319 4315.763,6772.872C4315.766,6772.869 4315.773,6772.867 4315.773,6772.862C4315.772,6772.856 4315.76,6772.837 4315.76,6772.837C4315.761,6772.849 4315.762,6772.86 4315.763,6772.872C4312.035,6776.65 4308.089,6775.826 4303.133,6788.308C4298.177,6800.79 4297.002,6807.716 4297.011,6808.128C4296.726,6807.072 4282.375,6741.387 4282.375,6713.265C4282.375,6685.143 4290.256,6648.176 4295.463,6626.054C4292.229,6627.406 4289.157,6629.067 4286.284,6631.001C4282.756,6633.376 4279.526,6636.161 4276.665,6639.288C4272.318,6644.038 4268.82,6649.577 4266.411,6655.665C4265.941,6637.238 4261.476,6602.09 4280.244,6549.951C4291.425,6518.891 4313.507,6496.585 4332.226,6470.074C4330.982,6469.987 4329.726,6469.942 4328.459,6469.942C4316.797,6469.942 4306.004,6473.697 4297.226,6480.063C4297.281,6454.703 4336.165,6408.869 4348.415,6396.202C4385.429,6357.93 4425.971,6340.51 4429.129,6338.648C4427.939,6338.549 4426.743,6338.474 4425.541,6338.424C4424.334,6338.374 4423.121,6338.349 4421.902,6338.349C4418.005,6338.349 4414.168,6338.608 4410.407,6339.11C4407.264,6339.53 4404.174,6340.12 4401.147,6340.87C4393.83,6342.683 4386.881,6345.432 4380.435,6348.983ZM4587.647,6165.411C4584.233,6163.519 4580.786,6161.68 4577.307,6159.895C4573.556,6157.971 4569.768,6156.109 4565.944,6154.313C4555.59,6149.448 4544.971,6145.057 4534.115,6141.165C4554.646,6141.494 4574.763,6143.547 4594.345,6147.116C4619.49,6151.698 4650.813,6168.425 4654.631,6170.643C4659.471,6173.455 4664.242,6176.375 4668.938,6179.4C4675.394,6183.558 4681.711,6187.914 4687.88,6192.46C4690.817,6194.624 4693.721,6196.831 4696.59,6199.081C4698.46,6200.547 4700.315,6202.031 4702.156,6203.532C4703.287,6204.454 4704.849,6205.754 4705.531,6206.319C4705.772,6206.518 4705.947,6206.733 4706.249,6206.921C4711.843,6210.397 4723.903,6228.137 4726.538,6238.574C4732.056,6260.429 4757.99,6281.68 4769.313,6291.117C4773.115,6294.286 4775.852,6299.11 4775.852,6299.11C4766.477,6298.159 4762.311,6297.569 4753.159,6295.92C4750.703,6295.478 4748.255,6295.011 4745.817,6294.519C4742.05,6293.76 4738.304,6292.943 4734.579,6292.069C4729.104,6290.784 4723.677,6289.375 4718.299,6287.846C4717.126,6287.512 4715.956,6287.173 4714.787,6286.828C4702.205,6283.113 4689.906,6278.737 4677.928,6273.741C4674.434,6272.284 4670.968,6270.774 4667.53,6269.212C4666.368,6268.684 4665.21,6268.15 4664.055,6267.611C4647.618,6259.934 4631.846,6251.067 4616.849,6241.123C4615.117,6239.974 4613.394,6238.811 4611.683,6237.633C4611.047,6237.196 4610.413,6236.756 4609.78,6236.315C4608.156,6235.183 4606.542,6234.038 4604.937,6232.88C4605.988,6232.976 4638.035,6237.932 4647.72,6237.737C4657.405,6237.542 4670.401,6235.268 4674.783,6232.63C4670.357,6228.004 4665.81,6223.494 4661.149,6219.105L4660.658,6218.644C4659.046,6217.131 4657.42,6215.634 4655.78,6214.15L4655.38,6213.788C4653.544,6212.133 4651.692,6210.496 4649.823,6208.877C4645.36,6205.012 4640.803,6201.254 4636.156,6197.606C4632.676,6194.874 4629.145,6192.205 4625.565,6189.598C4621.777,6186.84 4617.933,6184.153 4614.037,6181.539C4607.057,6176.857 4599.908,6172.409 4592.599,6168.207C4590.956,6167.263 4589.305,6166.331 4587.647,6165.411ZM4710.491,6139.728C4713.96,6142.45 4717.479,6145.11 4721.047,6147.707C4732.633,6156.141 4744.733,6163.909 4757.292,6170.957C4757.617,6171.139 4757.943,6171.321 4758.269,6171.503C4768.02,6176.936 4778.046,6181.934 4788.319,6186.473L4789.327,6186.916C4791.311,6188.473 4793.279,6190.05 4795.23,6191.647C4795.843,6192.149 4796.454,6192.652 4797.064,6193.158C4797.223,6193.289 4797.381,6193.421 4797.54,6193.553C4797.994,6193.931 4798.448,6194.31 4798.9,6194.69C4799.56,6195.245 4800.218,6195.802 4800.874,6196.361C4801.919,6197.252 4802.958,6198.148 4803.992,6199.05C4806.483,6201.222 4808.944,6203.426 4811.374,6205.664C4814.507,6208.548 4817.59,6211.487 4820.621,6214.478C4823.047,6216.872 4825.439,6219.3 4827.797,6221.761L4827.64,6222.379C4827.532,6222.53 4827.425,6222.683 4827.32,6222.837L4827.476,6223.026L4827.64,6222.379C4827.746,6222.229 4827.854,6222.081 4827.963,6221.933C4829.493,6223.532 4831.008,6225.144 4832.51,6226.771C4837.566,6232.249 4842.458,6237.882 4847.176,6243.662C4847.688,6244.289 4848.198,6244.918 4848.705,6245.548C4850.003,6247.16 4851.288,6248.783 4852.558,6250.417C4856.537,6255.532 4860.383,6260.757 4864.09,6266.084C4863.936,6266.614 4863.784,6267.144 4863.632,6267.675C4857.865,6261.556 4851.889,6255.636 4845.715,6249.926C4843.93,6248.275 4842.129,6246.642 4840.311,6245.027C4837.264,6242.319 4834.172,6239.662 4831.035,6237.056C4829.124,6235.468 4827.197,6233.9 4825.254,6232.351C4824.643,6231.864 4824.03,6231.379 4823.416,6230.896C4822.529,6233.742 4822.051,6236.767 4822.051,6239.904C4822.051,6239.979 4822.052,6240.055 4822.052,6240.131C4822.066,6241.956 4822.241,6243.742 4822.564,6245.477L4822.366,6246.551C4817.211,6242.171 4811.934,6237.932 4806.539,6233.838C4803.573,6231.588 4800.571,6229.382 4797.536,6227.221C4788.824,6221.02 4779.828,6215.192 4770.573,6209.761C4767.565,6207.995 4764.53,6206.272 4761.468,6204.591C4759.142,6203.315 4756.801,6202.063 4754.445,6200.836C4752.941,6200.053 4751.431,6199.279 4749.915,6198.517L4749.843,6198.48C4747.736,6197.421 4745.618,6196.382 4743.488,6195.362C4742.604,6194.939 4741.717,6194.519 4740.829,6194.102C4732.336,6190.121 4723.665,6186.457 4714.832,6183.126C4711.853,6179.669 4708.937,6176.154 4706.087,6172.586C4704.913,6171.115 4703.749,6169.636 4702.597,6168.147C4692.318,6154.861 4682.933,6140.847 4674.536,6126.197C4666.931,6112.931 4660.136,6099.142 4654.217,6084.898C4670.953,6105.123 4689.827,6123.515 4710.491,6139.728ZM5076.15,6434.065C5078.021,6434.05 5079.852,6433.864 5081.628,6433.523C5076.208,6425.307 5066.896,6419.881 5056.326,6419.881C5054.366,6419.881 5052.448,6420.068 5050.591,6420.425C5051.392,6421.639 5052.278,6422.792 5053.24,6423.876C5058.79,6430.126 5066.885,6434.066 5075.893,6434.066C5075.979,6434.066 5076.065,6434.066 5076.15,6434.065ZM4380.792,6745.956C4378.179,6699.523 4386.659,6632.296 4391.678,6611.551C4391.829,6610.926 4402.195,6567.755 4402.358,6567.112C4387.957,6589.724 4384.157,6610.338 4379.74,6637.772C4376.337,6658.91 4377.86,6727.337 4380.792,6745.956ZM4965.721,6573.641C4965.633,6573.569 4965.544,6573.496 4965.456,6573.424L4965.463,6573.909C4965.549,6573.819 4965.635,6573.73 4965.721,6573.641ZM4966.474,6381.196C4962.364,6376.857 4957.979,6372.781 4953.347,6368.997C4949.551,6365.896 4945.589,6362.991 4941.475,6360.298C4935.284,6356.244 4928.751,6352.668 4921.929,6349.625C4918.731,6348.198 4915.47,6346.888 4912.15,6345.701C4910.787,6345.214 4909.415,6344.747 4908.033,6344.301C4907.061,6343.987 4906.085,6343.684 4905.103,6343.391C4904.251,6343.137 4903.395,6342.891 4902.536,6342.652C4902.772,6343.062 4903.008,6343.472 4903.243,6343.882C4905.332,6347.532 4907.359,6351.222 4909.324,6354.95C4910.97,6358.072 4912.572,6361.22 4914.129,6364.395C4915.736,6366.221 4917.326,6368.063 4918.897,6369.921C4919.038,6370 4919.179,6370.079 4919.32,6370.158C4923.157,6374.904 4927.791,6378.98 4933.018,6382.179C4933.594,6382.231 4934.171,6382.279 4934.748,6382.324C4935.504,6382.383 4936.262,6382.435 4937.021,6382.482C4937.996,6382.541 4938.974,6382.591 4939.955,6382.63C4940.557,6382.654 4941.161,6382.675 4941.766,6382.691C4943.055,6382.727 4944.349,6382.745 4945.646,6382.745C4952.724,6382.745 4959.679,6382.216 4966.474,6381.196ZM4940.134,6586.909C4940.134,6586.868 4942.922,6587.283 4942.922,6587.283C4942.922,6587.283 4942.317,6585.434 4942.063,6585.022C4939.93,6582.48 4906.75,6546.262 4894.891,6519.87C4882.44,6492.159 4875.503,6466.851 4873.491,6460.477C4874.81,6459.606 4876.144,6458.756 4877.493,6457.929C4877.857,6457.706 4878.223,6457.484 4878.59,6457.264C4881.996,6455.219 4885.496,6453.315 4889.083,6451.561C4892.386,6449.945 4895.763,6448.456 4899.207,6447.101C4897.553,6445.848 4895.888,6444.609 4894.212,6443.384C4892.183,6444.025 4890.133,6444.62 4888.065,6445.17C4886.386,6445.616 4884.694,6446.031 4882.991,6446.416C4880.78,6446.914 4878.55,6447.36 4876.302,6447.752C4874.215,6448.116 4872.112,6448.434 4869.994,6448.704C4869.92,6448.713 4869.846,6448.722 4869.772,6448.732C4866.168,6449.185 4862.521,6449.501 4858.836,6449.673C4856.645,6449.776 4854.441,6449.827 4852.225,6449.827C4850.734,6449.827 4849.249,6449.804 4847.77,6449.758C4846.198,6449.708 4844.632,6449.633 4843.074,6449.531C4842.118,6449.469 4841.164,6449.398 4840.214,6449.316C4841.47,6450.076 4842.713,6450.855 4843.942,6451.652C4845.814,6452.866 4847.655,6454.124 4849.463,6455.424C4851.741,6457.061 4853.967,6458.765 4856.139,6460.533C4858.546,6462.492 4860.886,6464.53 4863.156,6466.642L4863.47,6467.755C4865.379,6474.479 4870.509,6496.147 4890.323,6524.595C4920.345,6567.698 4935.448,6582.857 4940.134,6586.909Z" style="fill:#fff"/>
            </g>
        </g>
    </g>
</g></svg>